# xmcd
#
# Track frame offsets: 
#        150
#        9947
#        23435
#        33008
#        44853
#        55925
#        68156
#        79954
#        92184
#        103120
#        120127
#        129987
#        142720
#        155364
#        165550
#        178131
#        189830
#        202939
#        216090
#        225741
#
# Disc length: 3179 seconds
#
# Revision: 0
# Processed by: cddbd v1.5.2PL0 Copyright (c) Steve Scherf et al.
# Submitted via: ExactAudioCopy v1.0b4
#
DISCID=f70c6914
DTITLE=Various Artist - CD 8
DYEAR=2013
DGENRE=Soul
TTITLE0=The Marvelettes - All the love I got
TTITLE1=James Brown - Try me (I need you)
TTITLE2=Sam Cooke - Steal away
TTITLE3=Johnny Mathis - Wild is the dreams
TTITLE4=Ruth Brown - Daddy Daddy
TTITLE5=Ray Charles - The midnight hour
TTITLE6=Ruth Brown - Mama, he treats your daughter mean
TTITLE7=The Clovers - Good lovin'
TTITLE8=Aretha Franklin - How deep is the ocean?
TTITLE9=Ben E. King - Show me the way
TTITLE10=The Miracles - The only one I love
TTITLE11=James Brown - Messing with the blues
TTITLE12=Sam Cooke - So glamourous
TTITLE13=Johnny Mathis - You are beautiful
TTITLE14=Ray Charles - A fool for you
TTITLE15=Joe Turner - Flip Flop and Fly
TTITLE16=LaVern Baker - Play it fair
TTITLE17=Ray Charles - This little girl of mine
TTITLE18=Aretha Franklin - I'm sitting on top of the world
TTITLE19=Ben E. King - Oh my love (with The Drifters)
EXTD=
EXTT0=
EXTT1=
EXTT2=
EXTT3=
EXTT4=
EXTT5=
EXTT6=
EXTT7=
EXTT8=
EXTT9=
EXTT10=
EXTT11=
EXTT12=
EXTT13=
EXTT14=
EXTT15=
EXTT16=
EXTT17=
EXTT18=
EXTT19=
PLAYORDER=
